<svg width="198" height="197" viewBox="0 0 198 197" fill="none" xmlns="http://www.w3.org/2000/svg">
<path d="M99 14.775C99 6.615 105.652 -0.113552 113.72 1.1059C131.819 3.84143 148.904 11.5857 162.971 23.6C180.805 38.8316 192.618 59.9268 196.287 83.0912C199.956 106.256 195.239 129.969 182.985 149.966C170.731 169.963 151.743 184.932 129.438 192.179C107.133 199.426 82.9735 198.477 61.3057 189.502C39.6378 180.527 21.8833 164.115 11.2358 143.218C0.588339 122.321 -2.25347 98.3107 3.22157 75.5056C7.54015 57.5175 16.8096 41.2104 29.8443 28.3588C35.655 22.6298 44.9914 24.1634 49.7877 30.765V30.765C54.584 37.3666 52.9674 46.5219 47.5368 52.6125C40.0144 61.0493 34.629 71.2663 31.9551 82.4039C28.1226 98.3675 30.1118 115.175 37.5651 129.803C45.0183 144.43 57.4464 155.919 72.614 162.201C87.7815 168.484 104.693 169.149 120.307 164.075C135.92 159.002 149.212 148.524 157.79 134.526C166.368 120.528 169.669 103.929 167.101 87.7139C164.533 71.4988 156.263 56.7321 143.779 46.07C135.07 38.6311 124.707 33.5308 113.663 31.127C105.689 29.3916 99 22.935 99 14.775V14.775Z" fill="url(#paint0_linear_201_104)"/>
<defs>
<linearGradient id="paint0_linear_201_104" x1="0.5" y1="82" x2="154.5" y2="178" gradientUnits="userSpaceOnUse">
<stop stop-color="#DF9780"/>
<stop offset="1" stop-color="#A66DE9"/>
</linearGradient>
</defs>
</svg>
